<svg width="33" height="32" viewBox="0 0 33 32" fill="none" xmlns="http://www.w3.org/2000/svg">
<g clip-path="url(#clip0_1196_69)">
<path d="M29.1495 13.001H29.4985C30.8525 13.036 31.8115 12.194 32.1445 11.448C32.5055 10.708 32.4945 10.086 32.4985 10.002L32.5005 6.002C32.4935 5.918 32.5065 5.295 32.1455 4.554C31.8155 3.808 30.8565 2.968 29.4995 3.003C27.4985 3.001 7.49952 3.002 7.49952 3.002C7.41652 3.006 5.79352 2.994 4.05152 3.857C2.30452 4.688 0.465515 6.648 0.499515 10.001C0.464515 13.354 2.30352 15.317 4.05052 16.146C5.79352 17.009 7.41652 16.997 7.49952 17.001H15.0225C14.6895 17.94 14.4995 18.946 14.4995 20.001C14.4995 24.972 18.5265 28.999 23.4995 29.001C28.4705 28.999 32.4975 24.972 32.4995 20.001C32.4985 17.171 31.1905 14.649 29.1495 13.001ZM7.49952 15.003C7.49952 15.003 7.21752 15.005 6.72752 14.921C5.98552 14.802 4.88652 14.482 4.03952 13.769C3.19652 13.048 2.51452 12.001 2.49852 10.001C2.53352 7.355 3.69352 6.316 4.94752 5.645C5.57752 5.33 6.23552 5.163 6.72752 5.083C7.21652 5.001 7.49952 5.009 7.49952 5.001C7.49952 5.001 27.4995 5.001 29.4995 5.001C30.1455 5.036 30.1855 5.196 30.3545 5.45C30.4175 5.58 30.4615 5.736 30.4815 5.854C30.5015 5.971 30.4925 6.002 30.4995 6.002L30.4975 10.002C30.4995 10.002 30.5015 10.033 30.4795 10.15C30.4535 10.329 30.3675 10.585 30.2415 10.728C30.1065 10.867 29.9985 10.986 29.4985 11.002C28.7955 11.002 26.3605 11.001 23.5015 11.001H23.4995H23.4975C18.2275 11.001 11.5115 11.001 11.4995 11.002C10.8525 10.967 10.8135 10.807 10.6445 10.555C10.5785 10.423 10.5355 10.267 10.5175 10.15C10.4955 10.033 10.5065 10.001 10.4985 10.001C10.5335 9.355 10.6935 9.316 10.9475 9.147C11.0775 9.081 11.2345 9.038 11.3515 9.019C11.4685 9 11.4995 9.009 11.4995 9.003H27.4995V7.003H11.4995C11.4165 7.007 10.7925 6.995 10.0535 7.357C9.30552 7.687 8.46452 8.649 8.49952 10.001C8.50352 10.085 8.49152 10.707 8.85352 11.447C9.18352 12.194 10.1455 13.036 11.4995 13.001C11.4995 13.001 14.3795 13.001 17.8475 13.001C17.1405 13.571 16.5215 14.246 16.0145 15.003H7.49952ZM23.4995 26.884C19.6985 26.875 16.6235 23.8 16.6145 20.001C16.6235 16.2 19.6985 13.125 23.4995 13.117C27.2985 13.125 30.3735 16.2 30.3825 20.001C30.3735 23.8 27.2985 26.875 23.4995 26.884Z" fill="white" fill-opacity="0.8"/>
<path d="M24.4995 15.001H22.4995V19.001H18.4995V21.001H22.4995V25.001H24.4995V21.001H28.4995V19.001H24.4995V15.001Z" fill="white" fill-opacity="0.8"/>
</g>
<defs>
<clipPath id="clip0_1196_69">
<rect width="32.001" height="32.001" fill="white" transform="translate(0.499512)"/>
</clipPath>
</defs>
</svg>
