<svg width="25" height="16" viewBox="0 0 25 16" fill="none" xmlns="http://www.w3.org/2000/svg">
<path d="M21.3108 3.40679V11.8773M12.9329 13.4702V14.4668C12.9332 14.5943 12.9083 14.7206 12.8597 14.8385C12.811 14.9563 12.7396 15.0634 12.6494 15.1535C12.5593 15.2437 12.4522 15.3151 12.3344 15.3638C12.2165 15.4124 12.0902 15.4373 11.9627 15.437H1.97013C1.84264 15.4373 1.71635 15.4124 1.59851 15.3638C1.48067 15.3151 1.3736 15.2437 1.28345 15.1535C1.19331 15.0634 1.12186 14.9563 1.07322 14.8385C1.02457 14.7206 0.999692 14.5943 1 14.4668V13.4702C2.27326 9.33018 12.1892 10.0396 12.9329 13.4702ZM13.2419 6.15795V9.12553V6.15795ZM15.9317 3.40679V11.8773V3.40679ZM18.6215 0.563049V14.721V0.563049ZM24 6.15795V9.12553V6.15795Z" stroke="white" stroke-linecap="round" stroke-linejoin="round"/>
</svg>
