<svg width="18" height="18" viewBox="0 0 18 18" fill="none" xmlns="http://www.w3.org/2000/svg">
<path d="M8.25 3.49999H3C2.60218 3.49999 2.22064 3.65802 1.93934 3.93933C1.65804 4.22063 1.5 4.60216 1.5 4.99999V15.5C1.5 15.8978 1.65804 16.2793 1.93934 16.5606C2.22064 16.842 2.60218 17 3 17H13.5C13.8978 17 14.2794 16.842 14.5607 16.5606C14.842 16.2793 15 15.8978 15 15.5V10.25M13.875 2.37499C14.1734 2.07662 14.578 1.909 15 1.909C15.422 1.909 15.8266 2.07662 16.125 2.37499C16.4234 2.67336 16.591 3.07803 16.591 3.49999C16.591 3.92194 16.4234 4.32662 16.125 4.62499L9 11.75L6 12.5L6.75 9.49999L13.875 2.37499Z" stroke="#F3F3F3" stroke-width="2" stroke-linecap="round" stroke-linejoin="round"/>
</svg>
