<svg width="15" height="15" viewBox="0 0 15 15" fill="none" xmlns="http://www.w3.org/2000/svg">
<path d="M8.3999 6.40002V1.40002C8.3999 1.13481 8.29455 0.880454 8.10701 0.692918C7.91947 0.505381 7.66512 0.400024 7.3999 0.400024C7.13469 0.400024 6.88033 0.505381 6.6928 0.692918C6.50526 0.880454 6.3999 1.13481 6.3999 1.40002V6.40002H1.3999C1.13469 6.40002 0.880332 6.50538 0.692796 6.69292C0.505259 6.88045 0.399902 7.13481 0.399902 7.40002C0.399902 7.66524 0.505259 7.9196 0.692796 8.10713C0.880332 8.29467 1.13469 8.40002 1.3999 8.40002H6.3999V13.4C6.3999 13.6652 6.50526 13.9196 6.6928 14.1071C6.88033 14.2947 7.13469 14.4 7.3999 14.4C7.66512 14.4 7.91947 14.2947 8.10701 14.1071C8.29455 13.9196 8.3999 13.6652 8.3999 13.4V8.40002H13.3999C13.6651 8.40002 13.9195 8.29467 14.107 8.10713C14.2945 7.9196 14.3999 7.66524 14.3999 7.40002C14.3999 7.13481 14.2945 6.88045 14.107 6.69292C13.9195 6.50538 13.6651 6.40002 13.3999 6.40002H8.3999Z" fill="white"/>
</svg>
